<svg width="901" height="768" viewBox="0 0 901 768" fill="none" xmlns="http://www.w3.org/2000/svg">
<g filter="url(#filter0_d)">
<path d="M636.171 30.9194L274.133 597.091L551.294 678.059L636.171 30.9194Z" fill="#FFE81D"/>
</g>
<g filter="url(#filter1_d)">
<path d="M621.292 648.977L183.132 148.093L443.208 27.0825L621.292 648.977Z" fill="#0094FF"/>
</g>
<g filter="url(#filter2_d)">
<path d="M23.7208 219.028L812.312 326.241L672.711 585.461L23.7208 219.028Z" fill="#C738B8"/>
</g>
<g filter="url(#filter3_d)">
<path d="M784.708 191.913L36.8691 386.822L202.557 628.477L784.708 191.913Z" fill="#56E6A1"/>
</g>
<g filter="url(#filter4_d)">
<path d="M88.9593 332.603C88.8053 334.143 89.5753 334.913 90.9613 334.913C108.363 334.913 122.223 324.595 124.687 307.347L136.699 221.723C136.853 220.337 136.083 219.413 134.697 219.413H118.219C116.679 219.413 115.755 220.337 115.601 221.723L104.205 303.651C103.127 311.197 99.5853 315.355 93.7333 315.355C92.3473 315.355 91.1153 316.279 90.9613 317.819L88.9593 332.603ZM138.761 334.913H178.493C179.879 334.913 180.957 333.989 181.111 332.603L183.113 318.435C183.267 317.049 182.497 316.125 181.111 316.125H162.477C161.091 316.125 160.321 315.201 160.475 313.815L164.017 288.405C164.171 287.019 165.403 286.095 166.789 286.095H185.423C186.809 286.095 187.887 285.171 188.041 283.785L190.043 269.617C190.197 268.231 189.427 267.307 188.041 267.307H169.407C168.021 267.307 167.251 266.383 167.405 264.997L170.793 240.511C170.947 239.125 172.025 238.201 173.411 238.201H192.045C193.431 238.201 194.509 237.277 194.663 235.891L196.665 221.723C196.819 220.337 196.049 219.413 194.663 219.413H154.931C153.391 219.413 152.467 220.337 152.313 221.723L136.759 332.603C136.605 333.989 137.375 334.913 138.761 334.913ZM207.116 334.913H223.594C225.134 334.913 226.058 333.989 226.212 332.603L238.994 240.973C239.148 239.587 240.226 238.663 241.612 238.663H252.854C254.24 238.663 255.318 237.739 255.472 236.353L257.474 221.723C257.782 220.183 256.858 219.413 255.472 219.413H207.886C206.5 219.413 205.422 220.337 205.268 221.723L203.266 236.353C203.112 237.893 203.882 238.663 205.268 238.663H215.894C217.28 238.663 218.05 239.587 217.896 240.973L205.114 332.603C204.96 333.989 205.73 334.913 207.116 334.913ZM249.652 334.913H296.16C297.546 334.913 298.624 333.989 298.778 332.603L300.934 317.973C301.088 316.433 300.318 315.509 298.932 315.509H274.138C273.368 315.509 273.06 315.047 273.522 314.123L311.252 240.049C312.176 238.201 312.176 238.201 312.33 236.661L314.332 221.723C314.486 220.337 313.716 219.413 312.33 219.413H265.822C264.436 219.413 263.358 220.337 263.204 221.723L261.048 236.353C260.894 237.739 261.664 238.663 263.05 238.663H287.844C288.614 238.663 288.922 239.279 288.46 240.049L250.884 314.123C249.96 315.663 249.96 315.971 249.806 317.511L247.65 332.603C247.496 333.989 248.266 334.913 249.652 334.913ZM321.864 334.913H338.342C339.882 334.913 340.806 333.989 340.96 332.603L353.742 240.973C353.896 239.587 354.974 238.663 356.36 238.663H367.602C368.988 238.663 370.066 237.739 370.22 236.353L372.222 221.723C372.53 220.183 371.606 219.413 370.22 219.413H322.634C321.248 219.413 320.17 220.337 320.016 221.723L318.014 236.353C317.86 237.893 318.63 238.663 320.016 238.663H330.642C332.028 238.663 332.798 239.587 332.644 240.973L319.862 332.603C319.708 333.989 320.478 334.913 321.864 334.913ZM394.178 334.913H440.686C442.072 334.913 443.15 333.989 443.304 332.603L445.46 317.973C445.614 316.433 444.844 315.509 443.458 315.509H418.664C417.894 315.509 417.586 315.047 418.048 314.123L455.778 240.049C456.702 238.201 456.702 238.201 456.856 236.661L458.858 221.723C459.012 220.337 458.242 219.413 456.856 219.413H410.348C408.962 219.413 407.884 220.337 407.73 221.723L405.574 236.353C405.42 237.739 406.19 238.663 407.576 238.663H432.37C433.14 238.663 433.448 239.279 432.986 240.049L395.41 314.123C394.486 315.663 394.486 315.971 394.332 317.511L392.176 332.603C392.022 333.989 392.792 334.913 394.178 334.913ZM480.711 213.561C487.949 213.561 494.571 207.709 494.571 200.163C494.571 194.157 490.105 189.537 484.099 189.537C476.707 189.537 470.239 195.697 470.239 203.089C470.239 209.249 474.551 213.561 480.711 213.561ZM513.359 213.561C520.597 213.561 527.219 207.709 527.219 200.163C527.219 194.157 522.753 189.537 516.747 189.537C509.355 189.537 502.887 195.697 502.887 203.089C502.887 209.249 507.199 213.561 513.359 213.561ZM450.527 334.913H465.773C467.159 334.913 467.775 334.451 468.391 332.603L471.471 322.747C471.779 321.823 472.241 320.437 474.089 320.437H489.643C491.491 320.437 491.645 321.823 491.645 322.747L491.799 332.603C491.799 334.451 492.415 334.913 493.801 334.913H509.047C510.587 334.913 511.511 334.143 511.357 332.295L506.121 222.185C505.967 219.875 505.505 219.413 503.041 219.413H488.873C486.409 219.413 485.947 219.875 485.177 222.185L448.833 332.295C448.217 334.143 448.987 334.913 450.527 334.913ZM479.017 302.265C477.939 302.265 477.785 301.649 478.093 300.571L489.027 263.765C489.335 262.841 490.567 262.841 490.567 263.765L491.337 300.571C491.337 301.649 490.875 302.265 489.797 302.265H479.017ZM523.31 334.913H539.788C541.328 334.913 542.252 333.989 542.406 332.603L548.566 288.559C548.72 287.173 549.798 286.249 551.184 286.249H566.43C567.816 286.249 568.586 287.173 568.432 288.559L562.272 332.603C562.118 333.989 562.888 334.913 564.274 334.913H580.752C582.292 334.913 583.216 333.989 583.37 332.603L598.924 221.723C599.078 220.337 598.308 219.413 596.922 219.413H580.444C578.904 219.413 577.98 220.337 577.826 221.723L571.82 264.689C571.666 266.075 570.588 266.999 569.202 266.999H553.956C552.57 266.999 551.8 266.075 551.954 264.689L557.96 221.723C558.114 220.337 557.344 219.413 555.958 219.413H539.48C537.94 219.413 537.016 220.337 536.862 221.723L521.308 332.603C521.154 333.989 521.924 334.913 523.31 334.913ZM598.91 332.603C598.756 333.989 599.526 334.913 600.912 334.913H640.644C642.03 334.913 643.108 333.989 643.262 332.603L645.264 318.435C645.418 317.049 644.648 316.125 643.262 316.125H624.628C623.242 316.125 622.472 315.201 622.626 313.815L635.562 221.723C635.716 220.337 634.946 219.413 633.56 219.413H617.082C615.542 219.413 614.618 220.337 614.464 221.723L598.91 332.603ZM658.588 334.913H675.066C676.606 334.913 677.53 333.989 677.684 332.603L690.466 240.973C690.62 239.587 691.698 238.663 693.084 238.663H704.326C705.712 238.663 706.79 237.739 706.944 236.353L708.946 221.723C709.254 220.183 708.33 219.413 706.944 219.413H659.358C657.972 219.413 656.894 220.337 656.74 221.723L654.738 236.353C654.584 237.893 655.354 238.663 656.74 238.663H667.366C668.752 238.663 669.522 239.587 669.368 240.973L656.586 332.603C656.432 333.989 657.202 334.913 658.588 334.913ZM97.9013 518.913H134.417C157.673 518.913 176.033 505.245 179.297 482.397L190.517 402.429C193.781 379.581 179.093 365.913 155.837 365.913H119.321C117.281 365.913 116.057 367.137 115.853 368.973L95.2493 515.853C95.0453 517.689 96.0653 518.913 97.9013 518.913ZM129.521 493.209C127.685 493.209 126.665 491.985 126.869 490.149L140.333 394.473C140.537 392.637 141.965 391.413 143.801 391.413H152.369C160.121 391.413 163.385 396.921 161.957 406.917L151.961 477.909C150.533 487.905 145.841 493.209 138.089 493.209H129.521ZM185.167 518.913H205.363C207.199 518.913 208.015 518.301 208.831 515.853L212.911 502.797C213.319 501.573 213.931 499.737 216.379 499.737H236.983C239.431 499.737 239.635 501.573 239.635 502.797L239.839 515.853C239.839 518.301 240.655 518.913 242.491 518.913H262.687C264.727 518.913 265.951 517.893 265.747 515.445L258.811 369.585C258.607 366.525 257.995 365.913 254.731 365.913H235.963C232.699 365.913 232.087 366.525 231.067 369.585L182.923 515.445C182.107 517.893 183.127 518.913 185.167 518.913ZM222.907 475.665C221.479 475.665 221.275 474.849 221.683 473.421L236.167 424.665C236.575 423.441 238.207 423.441 238.207 424.665L239.227 473.421C239.227 474.849 238.615 475.665 237.187 475.665H222.907ZM309.829 520.341C332.881 520.341 351.241 506.673 354.505 483.825L355.729 474.849C358.789 453.633 343.081 442.209 331.657 432.417C320.233 422.625 312.481 417.117 313.705 408.345L314.317 403.857C315.541 395.085 320.641 390.189 327.985 390.189C335.533 390.189 338.797 395.493 337.573 405.489L336.961 409.977C336.757 411.813 337.777 413.037 339.613 413.037H361.441C363.481 413.037 364.705 411.813 364.909 409.977L366.133 401.001C369.397 378.153 354.709 364.485 331.657 364.485C308.605 364.485 290.041 378.153 286.981 401.001L285.553 409.977C282.697 431.193 298.405 442.413 309.829 452.205C321.253 461.997 328.801 467.709 327.577 476.481L326.965 480.969C325.741 489.741 320.845 494.637 313.297 494.637C305.749 494.637 302.485 489.333 303.709 479.745L304.321 474.849C304.525 473.013 303.709 471.789 301.669 471.789H280.045C278.005 471.789 276.781 473.013 276.577 474.849L275.353 483.825C272.089 506.673 286.777 520.341 309.829 520.341ZM429.491 518.913H445.607C450.095 518.913 450.095 517.893 451.319 514.629L476.207 438.333C476.615 437.109 478.247 437.109 478.247 438.333L481.715 514.629C481.919 517.893 481.715 518.913 485.999 518.913H502.115C505.991 518.913 506.603 517.893 507.623 514.629L554.951 370.197C555.971 367.137 555.155 365.913 551.687 365.913H532.103C528.839 365.913 527.819 366.525 526.799 370.197L503.543 449.757C503.135 450.981 501.503 450.981 501.503 449.757L500.483 370.197C500.483 366.729 499.463 365.913 496.199 365.913H478.247C474.983 365.913 473.963 366.729 472.739 370.197L449.483 449.757C449.075 450.981 447.443 450.981 447.443 449.757L446.627 370.197C446.627 366.525 445.607 365.913 442.343 365.913H422.963C419.495 365.913 418.475 367.137 418.679 370.197L425.207 514.629C425.411 517.893 425.615 518.913 429.491 518.913ZM549.929 518.913H571.757C573.797 518.913 575.021 517.689 575.225 515.853L595.829 368.973C596.033 367.137 595.013 365.913 593.177 365.913H571.349C569.309 365.913 568.085 367.137 567.881 368.973L547.277 515.853C547.073 517.689 548.093 518.913 549.929 518.913ZM598.538 518.913H620.366C622.406 518.913 623.63 517.689 623.834 515.853L631.178 463.833C631.382 461.997 632.81 460.773 634.646 460.773H641.786C643.622 460.773 644.234 461.997 644.438 463.833L646.682 515.853C646.886 518.913 648.11 518.913 650.762 518.913H670.958C672.59 518.913 674.222 517.893 674.018 514.629L670.346 455.469C670.142 453.633 671.366 452.613 672.59 451.593C680.342 445.269 686.666 435.069 688.094 424.257L691.154 402.429C694.418 379.581 679.73 365.913 656.474 365.913H619.958C617.918 365.913 616.694 367.137 616.49 368.973L595.886 515.853C595.682 517.689 596.702 518.913 598.538 518.913ZM638.114 435.069C636.278 435.069 635.258 433.845 635.462 432.009L640.97 394.473C641.174 392.637 642.602 391.413 644.438 391.413H653.006C660.758 391.413 664.022 396.921 662.594 406.917L660.758 419.769C659.33 429.765 654.638 435.069 646.886 435.069H638.114Z" fill="white"/>
</g>
<defs>
<filter id="filter0_d" x="233.467" y="30.9194" width="667.325" height="736.544" filterUnits="userSpaceOnUse" color-interpolation-filters="sRGB">
<feFlood flood-opacity="0" result="BackgroundImageFix"/>
<feColorMatrix in="SourceAlpha" type="matrix" values="0 0 0 0 0 0 0 0 0 0 0 0 0 0 0 0 0 0 127 0"/>
<feOffset dx="4" dy="4"/>
<feGaussianBlur stdDeviation="2"/>
<feColorMatrix type="matrix" values="0 0 0 0 0 0 0 0 0 0 0 0 0 0 0 0 0 0 0.26 0"/>
<feBlend mode="normal" in2="BackgroundImageFix" result="effect1_dropShadow"/>
<feBlend mode="normal" in="SourceGraphic" in2="effect1_dropShadow" result="shape"/>
</filter>
<filter id="filter1_d" x="147.711" y="-43.5605" width="705.099" height="700.538" filterUnits="userSpaceOnUse" color-interpolation-filters="sRGB">
<feFlood flood-opacity="0" result="BackgroundImageFix"/>
<feColorMatrix in="SourceAlpha" type="matrix" values="0 0 0 0 0 0 0 0 0 0 0 0 0 0 0 0 0 0 127 0"/>
<feOffset dx="4" dy="4"/>
<feGaussianBlur stdDeviation="2"/>
<feColorMatrix type="matrix" values="0 0 0 0 0 0 0 0 0 0 0 0 0 0 0 0 0 0 0.26 0"/>
<feBlend mode="normal" in2="BackgroundImageFix" result="effect1_dropShadow"/>
<feBlend mode="normal" in="SourceGraphic" in2="effect1_dropShadow" result="shape"/>
</filter>
<filter id="filter2_d" x="0.910645" y="219.028" width="823.016" height="383.062" filterUnits="userSpaceOnUse" color-interpolation-filters="sRGB">
<feFlood flood-opacity="0" result="BackgroundImageFix"/>
<feColorMatrix in="SourceAlpha" type="matrix" values="0 0 0 0 0 0 0 0 0 0 0 0 0 0 0 0 0 0 127 0"/>
<feOffset dx="4" dy="4"/>
<feGaussianBlur stdDeviation="2"/>
<feColorMatrix type="matrix" values="0 0 0 0 0 0 0 0 0 0 0 0 0 0 0 0 0 0 0.26 0"/>
<feBlend mode="normal" in2="BackgroundImageFix" result="effect1_dropShadow"/>
<feBlend mode="normal" in="SourceGraphic" in2="effect1_dropShadow" result="shape"/>
</filter>
<filter id="filter3_d" x="27.3447" y="191.913" width="825.465" height="466.64" filterUnits="userSpaceOnUse" color-interpolation-filters="sRGB">
<feFlood flood-opacity="0" result="BackgroundImageFix"/>
<feColorMatrix in="SourceAlpha" type="matrix" values="0 0 0 0 0 0 0 0 0 0 0 0 0 0 0 0 0 0 127 0"/>
<feOffset dx="4" dy="4"/>
<feGaussianBlur stdDeviation="2"/>
<feColorMatrix type="matrix" values="0 0 0 0 0 0 0 0 0 0 0 0 0 0 0 0 0 0 0.26 0"/>
<feBlend mode="normal" in2="BackgroundImageFix" result="effect1_dropShadow"/>
<feBlend mode="normal" in="SourceGraphic" in2="effect1_dropShadow" result="shape"/>
</filter>
<filter id="filter4_d" x="84.9399" y="189.537" width="628.066" height="338.804" filterUnits="userSpaceOnUse" color-interpolation-filters="sRGB">
<feFlood flood-opacity="0" result="BackgroundImageFix"/>
<feColorMatrix in="SourceAlpha" type="matrix" values="0 0 0 0 0 0 0 0 0 0 0 0 0 0 0 0 0 0 127 0"/>
<feOffset dy="4"/>
<feGaussianBlur stdDeviation="2"/>
<feColorMatrix type="matrix" values="0 0 0 0 0 0 0 0 0 0 0 0 0 0 0 0 0 0 0.25 0"/>
<feBlend mode="normal" in2="BackgroundImageFix" result="effect1_dropShadow"/>
<feBlend mode="normal" in="SourceGraphic" in2="effect1_dropShadow" result="shape"/>
</filter>
</defs>
</svg>
